# xmcd
#
# Track frame offsets: 
#        150
#        16727
#        32648
#        48433
#        65826
#        81578
#        98711
#        111463
#        130164
#        146638
#
# Disc length: 2144 seconds
#
# Revision: 0
# Processed by: cddbd v1.5.2PL0 Copyright (c) Steve Scherf et al.
# Submitted via: ExactAudioCopy v1.0b1
#
DISCID=8c085e0a
DTITLE=Craig Monday - Craig Monday
DYEAR=2006
DGENRE=Country
TTITLE0=Mama Was Right
TTITLE1=Last Words
TTITLE2=She's That Kind Of Girl
TTITLE3=Heaven Is A Small Town
TTITLE4=Stuff Like That
TTITLE5=Right Thru It All
TTITLE6=The Things I'd Do
TTITLE7=Satan and Grandma
TTITLE8=Amanda
TTITLE9=10 Beer Night
EXTD=
EXTT0=
EXTT1=
EXTT2=
EXTT3=
EXTT4=
EXTT5=
EXTT6=
EXTT7=
EXTT8=
EXTT9=
PLAYORDER=
